<svg version="1.2" xmlns="http://www.w3.org/2000/svg" viewBox="0 0 29 29" width="29" height="29">
	<title>Forma 1</title>
	<style>
		.s0 { fill: #8b90a3 } 
	</style>
	<path id="Forma 1" fill-rule="evenodd" class="s0" d="m5.5 4.2v-1.7c0-1 0.8-1.8 1.8-1.8 1 0 1.8 0.8 1.8 1.8v1.7c0 1-0.8 1.8-1.8 1.8-1 0-1.8-0.8-1.8-1.8zm12.4 1.8c1 0 1.8-0.8 1.8-1.8v-1.7c0-1-0.8-1.8-1.8-1.8-0.9 0-1.7 0.8-1.7 1.8v1.7c0 1 0.8 1.8 1.7 1.8zm7.1 19.5h-24.8v-21.3h4.4c0 1.5 1.2 2.7 2.7 2.7 1.5 0 2.7-1.2 2.7-2.7h5.3c0 1.5 1.2 2.7 2.6 2.7 1.5 0 2.7-1.2 2.7-2.7h4.4zm-1.7-15.9h-21.3v14.2h21.3zm3.5-3.6v21.3h-24.8v1.8h24.8 1.8v-1.8-21.3zm-17.8 5.3h-3.5v3.6h3.5zm5.4 0h-3.6v3.5h3.6zm5.3 0h-3.6v3.6h3.6zm-10.7 5.3h-3.5v3.6h3.5zm5.4 0h-3.6v3.5h3.6zm5.3 0h-3.6v3.6h3.6z"/>
</svg>